<svg width="35" height="36" viewBox="0 0 35 36" fill="none" xmlns="http://www.w3.org/2000/svg">
<path d="M20.9996 28C21.5519 28 22.0124 28.4547 21.8762 28.9899C21.4357 30.7202 19.8671 32 17.9996 32C15.8598 31.9998 14.1127 30.3193 14.0055 28.2061C14.0023 28.0932 14.0929 28 14.2057 28H15.0138C15.5583 28 15.9793 28.4671 16.2374 28.9465C16.575 29.5735 17.2376 29.9998 17.9996 30C18.7567 30 19.4155 29.5793 19.7551 28.959C20.0203 28.4745 20.4473 28 20.9996 28Z" fill="black"/>
<path d="M17.5 5C18.625 5 20.2693 5.49423 21.8877 6.51953C23.4906 7.53505 24.9718 9.01225 25.8408 10.8682C26.6085 12.5079 26.9092 14.6562 26.9814 17.1396C27.0537 19.6238 26.8982 22.2829 26.8301 24.9756C26.8153 25.5516 26.3495 25.9998 25.8018 26H9.19824C8.6505 25.9998 8.18468 25.5516 8.16992 24.9756C8.10178 22.2829 7.94632 19.6238 8.01855 17.1396C8.0908 14.6562 8.39151 12.5078 9.15918 10.8682C10.0282 9.01225 11.5094 7.53505 13.1123 6.51953C14.7307 5.49423 16.375 5 17.5 5Z" stroke="black" stroke-width="2"/>
</svg>
