<svg width="35" height="36" viewBox="0 0 35 36" fill="none" xmlns="http://www.w3.org/2000/svg">
<mask id="path-1-inside-1_6_124" fill="white">
<path d="M32 30C32 31.1046 31.1046 32 30 32H6C4.89543 32 4 31.1046 4 30V13.1606C4 12.4429 4.38457 11.7802 5.00772 11.4242L17.7028 4.16985C17.8975 4.05855 18.118 4 18.3424 4C18.5765 4 18.8062 4.06377 19.0068 4.18445L31.0309 11.4171C31.6322 11.7788 32 12.4292 32 13.1309V30Z"/>
</mask>
<path d="M19.0068 4.18445L17.9759 5.89829L19.0068 4.18445ZM17.7028 4.16985L16.7105 2.43337L17.7028 4.16985ZM5.00772 11.4242L4.01544 9.68767L5.00772 11.4242ZM30 32V30H6V32V34H30V32ZM4 30H6V13.1606H4H2V30H4ZM5.00772 11.4242L6 13.1606L18.695 5.90634L17.7028 4.16985L16.7105 2.43337L4.01544 9.68767L5.00772 11.4242ZM19.0068 4.18445L17.9759 5.89829L30 13.1309L31.0309 11.4171L32.0618 9.70323L20.0377 2.47061L19.0068 4.18445ZM32 13.1309H30V30H32H34V13.1309H32ZM31.0309 11.4171L30 13.1309H32H34C34 11.7274 33.2645 10.4266 32.0618 9.70323L31.0309 11.4171ZM18.3424 4V6C18.2132 6 18.0866 5.96484 17.9759 5.89829L19.0068 4.18445L20.0377 2.47061C19.5258 2.16269 18.9397 2 18.3424 2V4ZM17.7028 4.16985L18.695 5.90634C18.5876 5.96772 18.4661 6 18.3424 6V4V2C17.77 2 17.2075 2.14938 16.7105 2.43337L17.7028 4.16985ZM4 13.1606H6V13.1606L5.00772 11.4242L4.01544 9.68767C2.76915 10.3998 2 11.7252 2 13.1606H4ZM6 32V30H6H4H2C2 32.2091 3.79086 34 6 34V32ZM30 32V34C32.2091 34 34 32.2091 34 30H32H30V32Z" fill="black" mask="url(#path-1-inside-1_6_124)"/>
<rect x="14" y="20" width="8" height="11" rx="1" stroke="black" stroke-width="2"/>
</svg>
